<?xml version="1.0" standalone="no"?>
<!DOCTYPE svg PUBLIC "-//W3C//DTD SVG 20010904//EN"
 "http://www.w3.org/TR/2001/REC-SVG-20010904/DTD/svg10.dtd">
<svg version="1.0" xmlns="http://www.w3.org/2000/svg"
 width="128.000000pt" height="128.000000pt" viewBox="0 0 128.000000 128.000000"
 preserveAspectRatio="xMidYMid meet">
<metadata>
Created by potrace 1.11, written by Peter Selinger 2001-2013
</metadata>
<g transform="translate(0.000000,128.000000) scale(0.100000,-0.100000)"
fill="#000000" stroke="none">
<path d="M609 1275 c-3 -2 -14 -6 -25 -8 -107 -20 -237 -87 -259 -134 -14 -29
-23 -97 -25 -190 0 -15 -11 -28 -32 -39 -40 -21 -68 -51 -68 -74 0 -24 33 -51
65 -53 32 -3 71 -47 41 -47 -19 0 -21 -11 -5 -27 8 -8 9 -23 2 -51 -10 -37
-15 -121 -17 -284 0 -43 -4 -78 -8 -78 -13 0 12 -52 32 -70 11 -9 17 -19 14
-22 -3 -3 6 -8 19 -12 14 -3 27 -15 30 -27 3 -13 12 -19 24 -17 13 2 17 -2 15
-16 -3 -17 -1 -18 11 -7 13 10 16 9 22 -8 3 -10 13 -25 22 -33 10 -8 14 -8 10
-1 -4 6 -3 14 3 18 5 3 10 -3 10 -14 0 -13 6 -21 18 -21 10 0 28 -7 40 -16 22
-15 47 -21 117 -27 17 -1 48 8 71 20 22 13 50 23 61 23 10 0 29 11 40 24 12
13 28 28 38 33 9 5 17 19 18 30 0 12 5 19 9 17 5 -3 6 -10 3 -15 -4 -5 1 -9 9
-9 14 0 20 11 17 32 0 4 9 10 21 13 16 6 18 9 7 16 -11 7 -10 9 3 9 24 0 61
38 54 56 -3 8 -1 14 4 14 5 0 5 14 0 32 -9 31 -22 255 -23 375 0 37 -4 50 -13
46 -9 -3 -12 -22 -10 -61 2 -37 -3 -75 -15 -111 -11 -30 -19 -62 -19 -71 0
-15 -26 -55 -69 -107 -13 -15 -51 -5 -58 16 -12 39 -38 80 -57 91 -12 6 -32
17 -45 25 -18 10 -30 11 -44 4 -24 -14 -8 -34 30 -37 33 -3 72 -39 78 -73 4
-21 1 -24 -33 -28 -97 -9 -222 0 -222 16 0 44 40 83 92 88 36 4 36 4 34 22 -4
23 -42 24 -71 1 -13 -10 -28 -18 -33 -18 -15 0 -48 -49 -56 -82 -5 -23 -12
-28 -35 -28 -23 0 -34 8 -51 34 -11 19 -24 36 -28 38 -4 2 -16 32 -26 68 -14
48 -19 97 -19 183 0 112 1 120 24 142 39 39 135 59 289 59 74 1 151 -2 170 -5
105 -19 163 -52 159 -92 0 -12 -1 -32 0 -44 l1 -23 20 20 c11 11 28 20 38 20
23 0 52 30 52 54 0 21 -55 76 -76 76 -9 0 -14 12 -15 33 -1 87 -17 165 -41
208 -16 28 -35 42 -94 67 -100 44 -229 73 -245 57z m211 -1190 c0 -8 -7 -15
-15 -15 -13 0 -14 3 -3 15 16 18 18 18 18 0z"/>
</g>
</svg>
