<svg width="44" height="65" viewBox="0 0 44 65" fill="none" xmlns="http://www.w3.org/2000/svg">
<g clip-path="url(#clip0)">
<path d="M43.7991 21.396C43.4338 20.6072 42.8128 20.027 42.1096 19.5374C41.3699 19.0116 40.6027 18.5492 39.7078 18.3226C39.6347 18.3045 39.5434 18.1866 39.5342 18.1141C39.4703 17.5248 39.4155 16.9264 39.3881 16.328C39.3242 14.406 39.1781 12.5021 38.8676 10.5983C38.6667 9.36528 38.411 8.15042 37.8721 7.01716C37.2603 5.72977 36.3105 4.7325 35.0137 4.116C34.21 3.73523 33.3607 3.43605 32.5479 3.0734C31.7899 2.73796 31.0411 2.36625 30.2922 2.01267C29.8995 1.83135 29.516 1.62283 29.105 1.50497C28.621 1.35991 28.1187 1.31458 27.6256 1.20579C27.0502 1.06979 26.484 0.888472 25.9087 0.752481C25.0502 0.553027 24.1826 0.380771 23.3151 0.181317C22.5388 -5.33462e-06 21.7626 -0.0181375 20.9772 0.0362591C20.7032 0.0543913 20.3927 0.12692 20.1644 0.262912C19.3516 0.734349 18.4292 0.806877 17.5525 1.03353C17.3973 1.06979 17.2603 1.05166 17.1963 1.24205C17.1781 1.28738 17.0502 1.30551 16.9772 1.31458C16.6667 1.35084 16.3562 1.34178 16.0548 1.42337C15.589 1.54123 15.1324 1.73162 14.6667 1.86761C14.1918 2.0036 13.6986 2.09426 13.2694 2.38438C12.9772 2.58383 12.6484 2.72889 12.3379 2.90115C11.863 3.155 11.3973 3.41791 10.9224 3.67177C10.4018 3.95281 9.99086 4.39705 9.37899 4.53304C8.52054 4.7325 7.81734 5.213 7.2146 5.8567C6.55707 6.56385 6.07305 7.37073 5.78995 8.29548C5.47031 9.33808 5.34246 10.4079 5.27853 11.4867C5.19634 12.7379 5.17807 13.989 5.14154 15.2492C5.11415 16.0742 5.11415 16.9083 5.10502 17.7333C5.10502 17.969 4.94063 18.0869 4.75798 18.1685C4.12785 18.4495 3.47944 18.7034 2.85844 18.9935C2.63926 19.0932 2.43835 19.2383 2.23744 19.3833C1.8904 19.6281 1.52511 19.8548 1.23287 20.1539C0.78538 20.6163 0.429216 21.1512 0.200906 21.7586C0.127846 21.9581 0.109581 22.1938 0.0547868 22.4023C-0.118729 23.0188 0.109581 23.7169 0.630129 24.1158C1.70775 24.9318 2.88584 25.3669 4.2557 25.1131C4.44748 25.0768 4.60273 25.1312 4.74885 25.2853C5.03196 25.5845 5.30593 25.8837 5.5525 26.2101C5.83561 26.5818 6.00912 27.3162 5.80821 27.8057C5.70775 27.7241 5.61643 27.6607 5.52511 27.5881C5.40638 27.4884 5.30593 27.3706 5.17807 27.2799C4.85844 27.0532 4.75798 27.1076 4.73972 27.4884C4.70319 28.0868 4.94063 28.6035 5.25113 29.0931C5.38812 29.3016 5.42465 29.5011 5.39725 29.7277C5.2968 30.3896 5.18721 31.0423 5.09588 31.7041C5.03196 32.1393 4.96803 32.5564 4.70319 32.9281C4.67579 32.9734 4.68492 33.0369 4.67579 33.0913C4.76712 33.1275 4.84931 33.1547 4.9589 33.191C4.65753 33.4176 4.82191 33.8528 4.48401 34.0341C4.45661 34.0432 4.45661 34.1157 4.46575 34.1611C4.51141 34.8773 4.36529 35.6116 4.70319 36.3097C4.48401 36.3641 4.51141 36.5726 4.51141 36.754C4.50228 37.2798 4.49314 37.7966 4.50228 38.3224C4.51141 38.9117 4.36529 39.5101 4.61186 40.0903C4.63926 40.1447 4.61186 40.2263 4.5936 40.2897C4.52054 40.5164 4.43835 40.743 4.34702 40.9788C4.41095 40.9969 4.47488 41.006 4.5662 41.0332C4.42008 41.3142 4.12785 41.5318 4.30136 41.8854C4.31963 41.9216 4.26483 41.9942 4.23744 42.0486C4.19177 42.1483 4.15524 42.2571 4.10045 42.3659C4.19177 42.384 4.2557 42.3931 4.34702 42.4021C4.27396 42.7104 4.10045 42.9914 4.31049 43.2906C4.32876 43.3088 4.26483 43.3813 4.2557 43.4266C4.21004 43.8527 4.16438 44.2879 4.10958 44.7593C4.26483 44.6959 4.32876 44.6687 4.47488 44.6052C4.2831 44.9497 4.21917 45.2308 4.23744 45.5662C4.2557 46.1736 5.10045 45.7811 5.10958 46.3885C5.10958 46.3885 5.10958 46.3885 5.10045 46.3885C5.10045 46.5608 5.10045 46.7421 5.10045 46.9143C5.10958 47.3223 5.79908 47.7665 6.23744 48.1201C6.24657 48.1292 6.23744 48.1564 6.23744 48.1655C6.21917 48.1564 6.21004 48.1473 6.19177 48.1473C6.12785 48.2833 6.06392 48.4193 5.98173 48.5825C5.77168 48.6641 5.80821 48.4102 5.69862 48.2471C5.61643 48.4102 5.52511 48.5281 5.50684 48.655C5.48858 48.7729 5.51597 48.9995 5.5799 49.0267C5.90867 49.1537 6.23743 49.3712 6.621 49.2625C6.69406 49.2443 6.84017 49.2443 6.84931 49.2715C6.92237 49.48 7.02282 49.3531 7.12328 49.3259C7.30593 49.2715 7.49771 49.1627 7.67123 49.3531C7.07762 49.6251 6.81278 49.8064 6.621 49.4347C6.31963 49.48 6.00912 49.5163 5.73515 49.5616C5.87214 50.0512 5.99999 50.5136 6.11871 50.9306C6.30136 50.9397 6.52054 50.8944 6.621 50.985C6.73972 51.0847 5.73972 51.3205 5.81278 51.5471C6.15068 51.6468 6.54337 51.7647 6.93607 51.8916C6.75342 52.0186 6.5525 52.1636 6.2968 52.3449C6.40638 52.354 6.45205 52.3449 6.49771 52.354C6.76255 52.3993 7.01826 52.4537 7.2831 52.4991C7.43835 52.5262 7.43835 52.626 7.41095 52.771C7.37442 52.9433 7.38355 53.1246 7.36529 53.3785C7.2557 53.5145 7.10045 53.5598 6.93607 53.2606C6.84474 53.4057 6.77168 53.5145 6.68949 53.6232C6.69862 53.6414 6.71689 53.6595 6.72602 53.6867C7.20091 53.6232 7.67579 53.5507 8.2146 53.4782C8.13241 53.6051 8.08675 53.6686 8.02282 53.7683C8.22374 53.732 8.38812 53.6686 8.5525 53.6686C8.81734 53.6686 8.64383 54.004 8.81734 54.0947C8.84474 54.0312 8.88127 53.9587 8.9452 53.8227C9.27396 54.1853 8.57533 55.5027 8.85844 55.8472C8.9041 55.9016 8.87671 56.0376 8.88584 56.1373C8.84931 56.1464 8.80365 56.1645 8.76712 56.1735C8.67579 56.0104 8.57533 55.8562 8.51141 55.684C8.40182 55.4211 9.31049 54.3485 8.99086 54.3939C9.06392 54.4573 9.13698 54.4936 9.17351 54.548C9.21004 54.6115 8.23744 55.684 8.2557 55.7656C8.2831 55.8653 8.26483 56.0194 8.32876 56.0738C8.46575 56.2007 8.63013 56.2914 8.79451 56.373C8.9589 56.4546 9.13241 56.509 9.35159 56.5906C8.94976 56.8172 8.72145 56.6178 8.49314 56.3458C8.43835 56.4909 8.40182 56.5906 8.36529 56.6994C8.39269 56.6813 8.41095 56.6631 8.43835 56.645C8.66666 56.7991 8.88584 56.9532 9.11415 57.1074C9.19634 57.1618 9.2968 57.2524 9.36985 57.2343C9.43378 57.2162 9.49771 57.0711 9.50684 56.9804C9.51597 56.8172 9.54337 56.6813 9.74428 56.6087C9.71689 57.0258 9.99086 56.9804 10.2283 56.9623C10.2466 57.1074 10.2648 57.2343 10.2831 57.3975C10.4201 57.2977 10.5205 57.2343 10.6484 57.1436C10.2374 56.7991 9.74428 56.5997 9.64383 56.0013C9.78995 56.0829 9.9178 56.1826 10.0365 56.2914C10.1004 56.3458 10.1461 56.4183 10.2192 56.4637C10.3927 56.5906 10.5753 56.7085 10.7489 56.8263C10.9041 56.9351 10.9041 57.0711 10.831 57.2343C10.7945 57.3068 10.758 57.3793 10.6758 57.5153C11.032 57.3975 11.3242 57.3068 11.6256 57.2071C11.7443 57.3793 11.8721 57.5607 11.9909 57.7511C11.863 57.742 11.7717 57.6604 11.6712 57.6423C11.4429 57.5969 11.2146 57.5697 10.9863 57.5607C10.5388 57.5425 10.3379 57.6695 10.4566 58.2044C10.4931 58.3675 10.5662 58.3766 10.6849 58.295C10.8402 58.1953 10.9863 58.0865 11.1598 58.014C11.5068 57.8689 11.6073 57.9414 11.6256 58.3313C11.6256 58.3585 11.6438 58.3857 11.6712 58.4582C11.7808 58.3041 11.863 58.1772 11.9635 58.0412C12.1735 58.2316 12.3562 58.3947 12.5662 58.5761C12.6119 58.431 12.6484 58.3403 12.6941 58.2044C12.7854 58.3131 12.8584 58.3947 12.9315 58.4854C12.8767 58.5307 12.8584 58.5579 12.831 58.5761C12.6941 58.6667 12.5479 58.7574 12.4018 58.839C12.1644 58.975 12.1096 58.9478 12.0274 58.6486C11.8721 58.6758 11.7078 58.703 11.5525 58.7302C11.6438 58.8843 11.726 58.9931 11.7808 59.12C11.8447 59.256 11.9087 59.2742 12.0274 59.2016C12.4566 58.9478 12.8036 59.0928 12.9863 59.5733C13.0502 59.7365 13.1415 59.8997 13.2511 60.0357C13.3973 60.208 13.5799 60.344 13.5068 60.6613C13.653 60.5978 13.7443 60.5343 13.8356 60.5162C13.8995 60.4981 13.9909 60.5071 14.0548 60.5343C14.21 60.6069 14.347 60.7066 14.5023 60.7791C14.7306 60.8879 14.9863 60.9605 15.2055 61.0964C15.6073 61.3412 15.7443 61.314 15.9726 60.8879C16 60.8426 16.0183 60.7882 16.0548 60.6885C16.137 60.7791 16.1826 60.8607 16.2466 60.9151C16.4657 61.0964 16.6941 61.2868 16.9224 61.45C17.0868 61.5679 17.2785 61.6585 17.4429 61.7673C17.6256 61.8943 17.7899 62.0303 18.0274 61.9396C18.1004 61.9124 18.2192 61.9487 18.274 61.994C18.5753 62.3022 18.9863 62.5198 19.0594 63.0275C19.4977 62.9459 19.9087 63.0003 20.3014 63.1907C20.347 63.2088 20.4292 63.2088 20.4657 63.1816C20.6393 63.0275 20.8128 63.0094 21.0137 63.1363C21.0502 63.1635 21.1233 63.1454 21.1781 63.1363C21.4064 63.091 21.6256 63.0275 21.863 62.9731C21.863 62.9641 21.8447 62.9187 21.8265 62.8643C21.8447 62.8462 21.863 62.8281 21.8721 62.8099C21.9452 62.8734 22.0913 62.9641 22.0731 63.0003C22.0183 63.1726 21.9178 63.3358 21.8173 63.5534C21.8356 63.5715 21.8904 63.6621 21.9726 63.7165C22.0274 63.7528 22.1096 63.7165 22.1826 63.7165C22.1826 63.6531 22.1826 63.5896 22.1735 63.5352C22.1552 63.4627 22.1096 63.3902 22.0822 63.3086C22.4018 63.236 22.3927 63.236 22.4657 63.3902C22.4931 63.4446 22.5388 63.4808 22.5753 63.5262C22.621 63.4808 22.6667 63.4264 22.7215 63.3902C22.7854 63.3448 22.8584 63.2904 22.9315 63.2632C23.0046 63.236 23.0959 63.2451 23.1689 63.236C23.0046 63.1091 23.0776 62.9822 23.1872 62.8734C23.2146 62.8462 23.2877 62.8553 23.3516 62.8462C23.3333 62.9187 23.3151 62.9731 23.3151 62.9913C23.4886 63.0185 23.6438 63.0094 23.7899 63.0638C23.9726 63.1272 24.1278 63.1635 24.3105 63.0729C24.3836 63.0366 24.5388 63.0547 24.6027 63.1182C24.7306 63.2179 24.8402 63.2088 24.968 63.1454C25.0685 63.1001 25.1689 63.0638 25.2785 63.0457C25.5525 63.0185 25.8356 63.0003 26.0731 62.9822C26.1644 62.8099 26.2374 62.6286 26.347 62.4926C26.4566 62.3476 26.6301 62.2478 26.7488 62.1118C26.8858 61.9668 27.0046 61.858 27.2146 61.9487C27.2785 61.9759 27.4064 61.9396 27.4703 61.8943C27.7991 61.6313 28.1552 61.4319 28.5297 61.2687C28.5479 61.2596 28.5662 61.2415 28.5845 61.2234C28.7397 61.0602 28.9041 60.897 29.0594 60.7338C29.1415 60.8517 29.2237 60.9695 29.2968 61.0874C29.4246 61.2959 29.5616 61.2959 29.7717 61.178C30.0913 60.9967 30.4292 60.8789 30.7671 60.7338C30.8402 60.6975 30.9498 60.6794 30.9772 60.6159C31.0776 60.4165 31.1963 60.4618 31.3333 60.5525C31.3973 60.5887 31.4703 60.5978 31.5434 60.625C31.5251 60.6069 31.5068 60.5887 31.4886 60.5706C31.5982 60.4074 31.6986 60.2442 31.8082 60.072C31.8904 59.936 32.0091 59.8091 32.0548 59.664C32.2557 59.0656 32.621 58.9206 33.1415 59.247C33.1507 59.256 33.1689 59.247 33.1781 59.247C33.2968 59.0747 33.4064 58.9115 33.5342 58.7211C33.3699 58.703 33.2237 58.6758 33.0594 58.6577C33.032 58.7574 33.0137 58.8299 32.9772 58.975C32.7762 58.8662 32.5936 58.7755 32.4201 58.6758C32.1096 58.5035 32.1096 58.4491 32.3836 58.2316C32.4201 58.3313 32.4657 58.431 32.5114 58.5579C32.7215 58.3766 32.9041 58.2225 33.105 58.0502C33.2055 58.1862 33.2877 58.3041 33.3881 58.4491C33.4612 57.8961 33.589 57.8417 34.0457 58.0956C34.1096 58.1318 34.1735 58.1681 34.2466 58.2044C34.3379 58.2588 34.4201 58.3041 34.5388 58.3766C34.5571 58.2406 34.5753 58.1409 34.5845 58.0502C34.6301 57.6876 34.5114 57.5425 34.1644 57.5425C34.0548 57.5425 33.9543 57.5607 33.8447 57.5788C33.5982 57.6241 33.3516 57.6785 33.0959 57.7239C33.1781 57.5879 33.2785 57.4428 33.3516 57.2887C33.4155 57.1618 33.4703 57.1708 33.5799 57.2161C33.8173 57.3159 34.0639 57.3884 34.3014 57.47C34.0913 56.9986 34.1552 56.8988 34.4384 56.6813C34.7032 56.4818 35.032 56.373 35.2146 56.0557C35.242 56.0104 35.3333 56.0104 35.4064 55.9922C35.3059 56.6087 34.7854 56.79 34.4018 57.1436C34.5388 57.2343 34.6484 57.2977 34.7762 57.3793C34.7945 57.2071 34.8128 57.0802 34.831 56.926C35.1324 57.0167 35.2694 56.8716 35.3242 56.6087C35.5342 56.6903 35.5342 56.8535 35.5342 57.0348C35.5342 57.0983 35.5982 57.1889 35.653 57.2161C35.7078 57.2433 35.8356 57.2252 35.8539 57.189C36.0183 56.8444 36.3196 56.7538 36.6667 56.6903C36.621 56.5634 36.5753 56.4637 36.5388 56.3458C36.0913 56.7356 36 56.7538 35.7352 56.5543C36.1004 56.3095 36.6393 56.3639 36.8219 55.8381C36.7854 55.7837 36.7489 55.7202 36.7032 55.6477C36.8128 55.548 36.9132 55.4573 37.0411 55.3485C36.6575 55.3304 36.6119 55.3757 36.5114 55.6749C36.4475 55.8472 36.3288 55.9922 36.2374 56.1464C36.2009 56.1282 36.1644 56.1192 36.1278 56.101C36.137 56.0013 36.1096 55.8653 36.1644 55.8109C36.4201 55.5117 36.6941 55.2216 36.9772 54.9496C37.0228 54.9043 36.1324 54.9315 36.2511 54.9224C36.2968 54.3603 36.6895 54.7592 36.9543 54.732C36.9087 54.6414 36.8721 54.5779 36.8082 54.4601C37.3196 54.5326 37.7945 54.5961 38.2694 54.6595C38.2785 54.6323 38.2877 54.6051 38.2968 54.587C38.2237 54.4782 38.1507 54.3694 38.0776 54.2606C37.8219 54.5235 37.758 54.5235 37.6027 54.315C37.6027 54.1155 37.6393 53.9705 37.5936 53.8617C37.4931 53.5988 37.6027 53.4809 37.8219 53.4084C37.9224 53.3721 38.032 53.3449 38.1324 53.3359C38.2877 53.3268 38.452 53.3359 38.6073 53.3359C38.6073 53.3177 38.6164 53.2996 38.6164 53.2815C38.4155 53.1364 38.2237 52.9823 38.0137 52.8191C38.2603 52.7738 38.4612 52.7647 38.653 52.7012C38.8539 52.6378 39.0365 52.538 39.1552 52.4837C39.2283 52.2661 38.2466 52.0213 38.3562 51.9487C38.484 51.8671 38.6941 51.9306 38.8493 51.9306C38.9772 51.4682 39.105 51.0059 39.242 50.5254C38.9772 50.4891 38.6941 50.4528 38.411 50.4256C38.3744 50.4256 38.3379 50.471 38.2922 50.4891C38.2009 50.5254 38.0913 50.616 38.0091 50.5979C37.7808 50.5435 37.5525 50.4347 37.2877 50.344C37.5251 50.1446 37.7169 50.2534 37.9087 50.3168C37.9635 50.335 38.0822 50.335 38.0913 50.3168C38.137 50.1355 38.2557 50.2081 38.347 50.2353C38.7215 50.344 39.0411 50.1355 39.3699 50.0267C39.3973 50.0177 39.4246 49.9633 39.4429 49.927C39.5251 49.7276 39.4338 49.4465 39.242 49.2742C39.2237 49.4646 39.1781 49.6278 39.032 49.5734C38.9132 49.374 38.8402 49.238 39.7489 49.0839C39.7489 49.0839 39.7671 49.0204 39.8036 48.9932C40.032 48.83 40.032 48.6306 39.968 48.3586C39.9315 48.1863 39.7306 47.6514 39.7215 47.4701C39.7123 47.4701 39.7123 47.4701 39.7032 47.4792C39.7032 47.3794 39.7032 47.2797 39.6941 47.18C39.6575 46.5998 40.5023 46.0286 40.5205 45.4574C40.5297 45.1764 40.4657 44.9769 40.3653 44.7412C40.3562 44.714 40.3562 44.6777 40.347 44.6233C40.4383 44.6505 40.5114 44.6777 40.5845 44.6959C40.6027 44.6596 40.6119 44.6505 40.6119 44.6324C40.6849 44.034 40.411 43.4447 40.5479 42.8464C40.5571 42.8011 40.5205 42.7467 40.5114 42.7013C40.484 42.5925 40.4475 42.4928 40.411 42.3749C40.5114 42.3568 40.5753 42.3478 40.6575 42.3387C40.5753 42.0758 40.3562 41.8491 40.5205 41.5681C40.5388 41.5318 40.484 41.4411 40.4475 41.3867C40.3836 41.278 40.3014 41.1692 40.2374 41.0604C40.2283 41.0422 40.2374 41.015 40.2374 40.9878C40.3105 40.9788 40.3744 40.9697 40.4657 40.9516C40.4018 40.8337 40.3288 40.743 40.3014 40.6343C40.2466 40.4167 40.2009 40.1991 40.1918 39.9815C40.1918 39.773 40.2831 39.5645 40.2831 39.3559C40.2831 38.7938 40.2466 38.2317 40.2374 37.6696C40.2374 37.4611 40.2831 37.2435 40.2648 37.0259C40.2466 36.754 40.3653 36.4367 40.1278 36.2825C40.1826 35.9743 40.2466 35.7204 40.274 35.4575C40.3014 35.2037 40.3288 34.9407 40.3105 34.6778C40.2922 34.3605 40.4566 33.9888 40.0731 33.7531C40.0548 33.744 40.0548 33.7078 40.0457 33.6806C40 33.4902 39.9635 33.3088 39.9178 33.1094C39.9543 33.0913 40.0365 33.0731 40.137 33.0369C40.1004 32.9553 40.0731 32.8918 40.0548 32.8374C39.9361 32.4838 39.7899 32.1303 39.7169 31.7585C39.5982 31.1783 39.5434 30.58 39.4247 29.9907C39.3425 29.5917 39.3607 29.2563 39.6073 28.9118C39.9361 28.4494 40.1004 27.9236 40.0365 27.3434C40.0091 27.1076 39.9269 27.0442 39.7169 27.1802C39.5434 27.289 39.3973 27.434 39.2329 27.57C39.1507 27.6335 39.0685 27.706 38.9406 27.7967C38.9406 27.3434 38.9406 26.9444 38.9406 26.5365C38.9406 26.4821 38.9863 26.4277 39.032 26.3823C39.3242 26.0832 39.6256 25.8021 39.9087 25.4939C40.137 25.2491 40.3836 25.095 40.7306 25.2038C40.8128 25.231 40.9041 25.2128 40.9863 25.2038C42.1552 25.0496 43.105 24.5329 43.6621 23.4631C44.0274 22.8103 44.1278 22.1031 43.7991 21.396ZM6.73972 50.7674C6.58447 50.5952 6.42922 50.432 6.26483 50.2507C6.31049 50.1781 6.35616 50.0965 6.43835 49.9515C6.57533 50.2416 6.68492 50.4864 6.79451 50.7221C6.77625 50.7402 6.75798 50.7493 6.73972 50.7674ZM38.5205 50.9968C38.7215 51.1328 38.758 51.2507 38.6027 51.4229C38.4931 51.5408 38.4018 51.6949 38.3014 51.8309C38.2648 51.8037 38.2283 51.7674 38.1918 51.7402C38.3014 51.4954 38.411 51.2507 38.5205 50.9968ZM5.98173 30.7069C5.99086 30.0451 6.08218 29.3832 6.12785 28.7214C6.16438 28.2681 6.21917 27.8057 6.2283 27.3524C6.2557 26.5727 6.24657 25.8021 6.2831 25.0224C6.29223 24.8048 6.39269 24.5873 6.42922 24.3697C6.52054 23.8982 6.61186 23.4359 6.67579 22.9644C6.73972 22.5202 6.94063 22.1575 7.242 21.8312C7.88127 21.1512 8.71232 20.7795 9.56164 20.435C10.5662 20.0179 11.5982 19.7006 12.6758 19.5012C14.0091 19.2564 15.3425 18.9935 16.6849 18.8303C20.1004 18.4042 23.5251 18.4042 26.9406 18.6852C28.4566 18.8031 29.9726 19.0207 31.4703 19.2836C32.5845 19.483 33.6895 19.8004 34.7671 20.1449C35.7443 20.4531 36.6941 20.843 37.5068 21.4957C38.1005 21.9672 38.5388 22.5202 38.4292 23.3452C38.3744 23.7622 38.3562 24.1884 38.3196 24.6145C38.3196 24.6507 38.3105 24.687 38.3196 24.7142C38.5936 25.9744 38.5571 27.2527 38.6393 28.5219C38.6941 29.3016 38.7854 30.0904 38.7945 30.8701C38.8128 31.686 38.7671 32.4929 38.7306 33.3088C38.7215 33.4448 38.6667 33.5718 38.6301 33.7078C38.5571 34.016 38.484 34.3333 38.4018 34.6869C38.4018 34.6869 38.3379 34.6869 38.2283 34.6869C38.137 35.2309 38.0365 35.7748 37.9361 36.346C37.8173 36.3097 37.7352 36.2825 37.6438 36.2644C37.6347 36.2825 37.6073 36.3007 37.6073 36.3097C37.7351 36.8356 37.4429 37.2889 37.3333 37.7694C37.2785 38.0323 37.2055 38.268 37.379 38.5309C37.2511 38.5672 37.1507 38.5944 37.0137 38.6306C37.0228 38.7304 37.0411 38.8301 37.0228 38.9208C37.0046 39.0205 36.9315 39.1112 36.895 39.2109C36.8676 39.2925 36.8219 39.3741 36.831 39.4557C36.8493 39.6551 36.9863 39.8546 36.7854 40.0359C36.758 40.054 36.758 40.1356 36.7762 40.1628C36.9406 40.4076 36.7671 40.5255 36.6027 40.6615C36.5662 40.6977 36.5205 40.7884 36.5388 40.8065C36.7945 41.1692 36.3744 41.4139 36.4292 41.7766C36.2374 41.695 36.1096 41.6406 35.9909 41.5953V42.2027C35.9635 42.2208 35.9361 42.239 35.9087 42.2571C35.7808 42.1302 35.653 42.0032 35.5068 41.8491C35.4429 41.9488 35.3699 42.0667 35.2877 42.2027C35.3607 42.248 35.4155 42.2934 35.4794 42.3296C35.1507 42.7376 35.2146 42.656 35.452 43.0458C35.3333 43.0368 35.2329 43.0368 35.1324 43.0186C34.8676 42.9642 34.621 43.1093 34.5662 43.3813C34.5297 43.5717 34.5297 43.7621 34.2648 43.8074C34.2283 43.8165 34.1918 43.9162 34.1918 43.9796C34.1735 44.1972 34.1644 44.4058 34.1552 44.578C34.0091 44.6777 33.8904 44.7593 33.7626 44.8319C33.5616 44.9316 33.3699 45.0766 33.1598 45.1129C32.6119 45.2036 32.0457 45.2942 31.516 45.0676C31.1233 44.9044 30.8128 44.6505 30.6849 44.2063C30.5845 43.8709 30.3927 43.5535 30.2374 43.2272C30.3014 43.2453 30.3744 43.2544 30.4383 43.2725C30.4475 43.1546 30.484 43.0277 30.4475 42.928C30.347 42.6741 30.2192 42.4293 30.0913 42.1846C29.6621 41.4049 29.1415 40.6977 28.5388 40.054C28.4201 39.9271 28.2374 39.8546 28.0731 39.782C27.4612 39.5101 26.8676 39.2109 26.4018 38.7122C26.3653 38.676 26.3196 38.6397 26.3014 38.5944C26.21 38.2499 25.8995 38.2045 25.6347 38.0595C25.032 37.724 24.3836 37.7966 23.7534 37.7966C23.6347 37.7966 23.516 37.9235 23.3881 38.0051C23.3699 37.9326 23.3425 37.86 23.2968 37.6968C23.2329 37.9688 23.105 38.0414 22.895 38.0232C22.8402 38.0142 22.7123 38.1955 22.7123 38.2861C22.7215 38.5763 22.7489 38.8754 22.8036 39.1656C22.895 39.6461 23.379 39.9543 23.8539 39.8364C24.4018 39.7095 24.9224 39.782 25.4338 39.9996C25.6164 40.0812 25.8082 40.1719 26 40.181C26.347 40.1991 26.5936 40.3623 26.8402 40.5889C27.0776 40.8065 27.379 40.9606 27.6347 41.1692C27.8173 41.3142 27.9635 41.4865 28.1278 41.6497C28.137 41.6587 28.1461 41.6587 28.1461 41.6678C28.137 42.1211 28.6119 42.3749 28.6119 42.8192C28.6119 42.8554 28.6119 42.9098 28.6393 42.9189C28.9954 43.0821 28.7215 43.2816 28.6849 43.4719C28.6667 43.5898 28.6484 43.7258 28.6758 43.8437C28.8036 44.3151 28.9589 44.7775 29.0868 45.2489C29.105 45.3305 29.032 45.4302 29.0046 45.5209C28.9315 45.4665 28.8402 46.4212 28.7945 46.3577C28.7032 46.2217 28.621 48.0857 28.5479 47.9316C28.4201 47.6505 27.9635 49.3332 27.6804 49.3604C27.6073 49.3695 27.5251 49.433 27.4612 49.4874C27.2694 49.6415 27.0685 49.7684 26.7945 49.6959C26.7397 49.6777 26.6667 49.7231 26.6027 49.7412C26.4749 49.7865 26.347 49.8409 26.21 49.8863C25.8265 50.0041 25.452 50.1492 25.0685 50.2217C24.5571 50.3214 24.0365 50.3668 23.5251 50.4484C22.3105 50.6297 21.105 50.4484 19.9178 50.2308C19.3607 50.131 18.8402 49.8228 18.2831 49.7412C17.8995 49.6868 17.589 49.5871 17.2694 49.3695C17.0868 49.2516 16.5023 47.6415 16.3653 47.9135C16.2831 48.0857 16.1735 46.2398 16.0639 46.394C16.0274 46.4393 15.9635 45.4756 15.9178 45.5118C15.8904 45.4484 15.8173 45.3758 15.8265 45.3214C15.9087 44.9225 15.9635 44.5145 16.1096 44.1428C16.2374 43.8165 16.347 43.5263 16.1096 43.209C16.0822 43.1637 16.0822 43.0368 16.1004 43.0277C16.3014 42.928 16.2831 42.7195 16.347 42.5472C16.3653 42.5019 16.3836 42.4475 16.411 42.4021C16.5297 42.1755 16.7032 42.0032 16.7488 41.7131C16.8128 41.3505 17.2146 41.2054 17.4977 40.9969C17.7808 40.7974 18.0457 40.5708 18.3196 40.3623C18.411 40.2988 18.5023 40.2263 18.6119 40.1991C19.0046 40.0812 19.4064 40.0087 19.7808 39.8727C20.2009 39.7186 20.621 39.7095 21.0411 39.8002C21.6256 39.918 22.1005 39.6189 22.1918 39.0386C22.2283 38.812 22.2557 38.5763 22.2831 38.3405C22.3105 38.1139 22.1918 38.0051 21.9635 37.9779C21.8539 37.9598 21.7625 37.851 21.6438 37.7694C21.6347 37.8238 21.6164 37.9054 21.5982 37.987C21.5799 37.987 21.5616 37.996 21.5616 37.996C21.3516 37.6787 21.0228 37.8056 20.7306 37.7603C20.0548 37.6606 19.4977 37.987 18.9041 38.1864C18.8584 38.2045 18.8128 38.2408 18.7854 38.2771C18.4657 38.948 17.8447 39.2653 17.2146 39.5735C16.8493 39.7548 16.4383 39.8546 16.1552 40.2081C15.516 41.0241 14.8676 41.84 14.4566 42.8011C14.347 43.0549 14.3653 43.1728 14.5205 43.336C14.3562 43.7258 14.2192 44.1156 14.0274 44.4783C13.8173 44.8681 13.4338 45.0948 13.0046 45.122C12.5114 45.1582 12 45.0948 11.4977 45.0313C11.3242 45.0132 11.1598 44.8591 11.0046 44.7684C10.895 44.7049 10.7945 44.6415 10.6575 44.5508C10.6484 44.3967 10.6484 44.1791 10.621 43.9706C10.6119 43.8981 10.5571 43.7802 10.5114 43.7711C10.3105 43.7349 10.2831 43.5807 10.2466 43.4266C10.2192 43.336 10.2009 43.2362 10.1461 43.1637C10.0274 43.0005 9.88127 42.8645 9.64383 42.9824C9.57077 43.0186 9.47944 43.0005 9.31506 43.0096C9.58903 42.7467 9.6073 42.52 9.30593 42.3115C9.61643 42.1302 9.41552 41.976 9.2968 41.7766C9.22374 41.8763 9.16894 41.967 9.10501 42.0304C9.03196 42.0939 8.9315 42.1302 8.84931 42.1755C8.81278 42.0939 8.75798 42.0123 8.75798 41.9216C8.75798 41.8038 8.78538 41.6859 8.81278 41.5409C8.68492 41.5953 8.5662 41.6497 8.42008 41.7222C8.31963 41.4683 8.10045 41.1782 8.16438 41.006C8.30136 40.6796 7.96346 40.5436 7.99086 40.4076C8.03652 40.1175 7.85387 39.8818 7.90867 39.6189C7.92693 39.5373 7.96346 39.4557 7.9726 39.365C7.98173 39.3197 7.9726 39.2381 7.9452 39.2199C7.71689 39.1112 7.69862 38.9389 7.77168 38.7213C7.78995 38.685 7.69862 38.5853 7.64383 38.5491C7.5799 38.5128 7.49771 38.5128 7.39725 38.4947C7.57077 38.1864 7.49771 37.9054 7.39725 37.6152C7.31506 37.3977 7.31506 37.1619 7.2694 36.9262C7.22374 36.7086 7.16894 36.482 7.10502 36.2372C7.06849 36.2463 6.97716 36.2825 6.84931 36.3369C6.74885 35.7658 6.64839 35.2037 6.54794 34.6416H6.31049C6.30136 34.6053 6.29223 34.569 6.29223 34.5418C6.35616 34.2336 6.29223 33.9435 6.15524 33.6624C6.09132 33.5264 6.06392 33.3632 6.05479 33.2091C6.02739 32.3932 5.9726 31.55 5.98173 30.7069ZM7.01369 48.7366C6.72145 48.6822 6.43835 48.6369 6.14611 48.5825C6.14611 48.5553 6.14611 48.5372 6.13698 48.51C6.33789 48.4193 6.54794 48.3377 6.76712 48.238C6.79451 48.4465 6.73972 48.6822 7.04109 48.655C7.04109 48.6822 7.02282 48.7094 7.01369 48.7366ZM8.31506 52.7529C8.2968 52.762 8.32419 52.8254 8.33333 52.8708C8.37899 53.0793 8.28766 53.2062 8.05022 53.2606C7.84017 53.3059 7.78538 53.1881 7.76712 52.9977C7.86757 52.9614 7.94976 52.9252 8.08675 52.8708C8.01369 52.762 7.94976 52.6713 7.87671 52.5625C7.81278 52.6169 7.76712 52.6713 7.71232 52.7166C7.65753 52.5716 7.77625 52.2089 7.87671 52.218C7.94976 52.2271 8.01369 52.3268 8.10501 52.4084C8.11415 52.3993 8.15068 52.3631 8.2146 52.3177C8.25113 52.4719 8.56164 52.5353 8.31506 52.7529ZM8.57077 52.4175C8.33333 52.2815 8.09588 52.1455 7.83104 52.0004C7.9315 51.8916 8.00456 51.81 8.09588 51.6922C8.28766 51.9188 8.46118 52.1273 8.6347 52.3359C8.6073 52.3631 8.58903 52.3903 8.57077 52.4175ZM10.2374 55.8834C10.0639 55.7656 9.89954 55.6568 9.73515 55.5389C9.74428 55.5117 9.75342 55.4936 9.76255 55.4664H10.2374V55.8834ZM12.0457 57.0167C11.8447 56.7629 11.6438 56.509 11.452 56.2551C11.4794 56.2279 11.5068 56.2098 11.5342 56.1826C11.7534 56.4365 11.9817 56.6903 12.2466 56.9986C12.137 57.0076 12.0639 57.0348 12.0457 57.0167ZM13.9087 60.2624C13.6712 60.0266 13.4886 59.8453 13.3059 59.6731C13.3242 59.6459 13.3425 59.6187 13.3607 59.5915C13.5525 59.7003 13.7625 59.7909 13.9452 59.9179C13.9726 59.936 13.9269 60.0901 13.9087 60.2624ZM15.0868 60.6522V60.3168C14.7489 60.344 14.4201 60.3621 14.0548 60.3893C14.1644 59.945 14.2374 59.528 13.8721 59.1744C14.3014 58.9568 14.5388 59.3195 14.9041 59.4101C14.7488 59.5552 14.6301 59.6549 14.4931 59.7728C14.6575 59.8635 14.7945 59.936 14.9224 60.0176C14.9315 60.0176 14.9406 60.0176 14.9498 60.0266C15.1507 60.2261 15.3516 60.2896 15.6073 60.1264C15.6256 60.1082 15.7534 60.2624 15.8721 60.3893C15.5708 60.489 15.3425 60.5706 15.0868 60.6522ZM17.4886 61.3594V60.8063C17.653 60.9061 17.7808 60.9877 17.9543 61.0964C17.7808 61.1962 17.653 61.2687 17.4886 61.3594ZM19.8447 62.7465C19.6712 62.683 19.4155 62.819 19.3425 62.5289C19.3242 62.4564 19.4703 62.3476 19.5342 62.2478C19.6621 62.3838 19.7808 62.5198 19.9087 62.6649C19.8904 62.6921 19.863 62.7193 19.8447 62.7465ZM21.2968 62.8099C21.2329 62.8553 21.0685 62.8371 21.0228 62.7827C20.895 62.6195 20.7945 62.6649 20.6667 62.7555C20.484 62.8915 20.2831 62.8734 20.0091 62.8371C20.2466 62.6014 20.5388 62.4473 20.411 62.0393C20.5114 62.3113 20.6301 62.4745 20.8767 62.2932C21.032 62.6558 21.0411 62.6558 21.5525 62.4564C21.6256 62.7283 21.4064 62.7374 21.2968 62.8099ZM24.5388 62.7646C24.3927 62.6649 24.2831 62.6286 24.1644 62.8099C24.137 62.8553 23.9726 62.8553 23.9087 62.819C23.7991 62.7374 23.5708 62.7374 23.653 62.4745C24.1735 62.6649 24.2283 62.6558 24.2922 62.3294C24.4018 62.3476 24.5114 62.3657 24.621 62.3838C24.6667 62.275 24.7032 62.1844 24.7306 62.0937C24.758 62.0937 24.7762 62.0846 24.8036 62.0846C24.7671 62.3929 24.8402 62.6467 25.1598 62.8009C24.9041 62.9187 24.7123 62.8825 24.5388 62.7646ZM25.7352 62.683C25.6073 62.7193 25.4703 62.7283 25.2603 62.7646C25.3699 62.5651 25.4429 62.4292 25.5342 62.3022C25.5525 62.275 25.6712 62.275 25.6986 62.3022C25.7625 62.3657 25.8082 62.4564 25.8356 62.547C25.8447 62.5833 25.7808 62.6739 25.7352 62.683ZM27.6621 61.3503C27.4977 61.2596 27.3699 61.1962 27.2055 61.1055C27.3699 60.9967 27.4977 60.9151 27.6621 60.7973V61.3503ZM31.0502 60.3893C30.7032 60.3621 30.3836 60.3349 30.0548 60.3168V60.6522C29.7991 60.5706 29.5799 60.4981 29.3607 60.4256C29.3973 60.1173 29.4338 60.0901 29.6712 60.1717C29.8265 60.2261 29.9452 60.2805 30.0822 60.081C30.1826 59.936 30.4201 59.8997 30.6393 59.7909C30.4931 59.6549 30.3836 59.5552 30.2374 59.4283C30.5753 59.3104 30.8219 58.9931 31.2511 59.1654C30.8767 59.5189 31.0046 59.945 31.0502 60.3893ZM31.2511 60.217C31.1872 60.1173 31.1507 60.0538 31.0868 59.945C31.3151 59.8181 31.5342 59.7003 31.7443 59.5915C31.7626 59.6187 31.7808 59.6459 31.7991 59.6731C31.6256 59.8453 31.4429 60.0176 31.2511 60.217ZM32.895 56.9714C33.1141 56.6994 33.3242 56.4455 33.5342 56.1826C33.4886 56.5543 33.0685 57.0348 32.895 56.9714ZM34.8402 55.8925V55.4483C34.9772 55.4573 35.1324 55.4664 35.2877 55.4664C35.2968 55.4936 35.3059 55.5117 35.3151 55.5389C35.1598 55.6568 35.0046 55.7656 34.8402 55.8925ZM36.4612 53.4175C36.4429 53.3903 36.4247 53.3631 36.3973 53.3359C36.5708 53.1273 36.7443 52.9279 36.9361 52.6922C37.0274 52.7919 37.1004 52.8826 37.2009 52.9913C36.9361 53.1545 36.6986 53.2905 36.4612 53.4175ZM37.2831 53.7529C37.2283 53.6713 37.1918 53.626 37.1461 53.5444C37.0639 53.6713 37.0091 53.7529 36.9361 53.8617C37.0457 53.907 37.137 53.9524 37.2466 53.9977C37.2374 54.1699 37.21 54.3059 36.9909 54.2606C36.7534 54.2153 36.6621 54.0883 36.6986 53.898C36.7078 53.8164 36.6712 53.7348 36.6347 53.5806C36.6621 53.5353 36.7352 53.4175 36.8173 53.2905C36.8539 53.3449 36.8813 53.3812 36.9087 53.4084C37.0365 53.4265 37.0091 53.0367 37.2009 53.2815C37.2831 53.3903 37.411 53.5444 37.2831 53.7529ZM38.8402 49.5009C38.8402 49.5281 38.8402 49.5553 38.8402 49.5825C38.5571 49.6369 38.274 49.6913 37.9909 49.7457C38.21 49.655 38.2374 49.4828 38.2009 49.238C38.4384 49.3286 38.6393 49.4102 38.8402 49.5009Z" fill="#1A1A1E"/>
<path d="M38.4018 34.6687C38.4018 34.6687 38.3379 34.6687 38.2283 34.6687C38.137 35.2127 38.0365 35.7566 37.936 36.3278C37.8173 36.2915 37.7351 36.2643 37.6438 36.2462C37.6347 36.2643 37.6073 36.2825 37.6073 36.2915C37.7351 36.8174 37.4429 37.2707 37.3333 37.7512C37.2785 38.0141 37.2054 38.2498 37.379 38.5127C37.2511 38.549 37.1506 38.5762 37.0137 38.6124C37.0228 38.7122 37.0411 38.8119 37.0228 38.9026C37.0045 39.0023 36.9315 39.093 36.8949 39.1927C36.8675 39.2743 36.8219 39.3559 36.831 39.4375C36.8493 39.6369 36.9863 39.8364 36.7854 40.0177C36.758 40.0358 36.758 40.1174 36.7762 40.1446C36.9406 40.3894 36.7671 40.5073 36.6027 40.6433C36.5662 40.6795 36.5205 40.7702 36.5388 40.7883C36.7945 41.151 36.3744 41.3957 36.4292 41.7584C36.2374 41.6768 36.1096 41.6224 35.9908 41.5771C35.9908 41.7856 35.9908 41.985 35.9908 42.1845C35.9634 42.2026 35.936 42.2208 35.9086 42.2389C35.7808 42.112 35.6529 41.985 35.5068 41.8309C35.4429 41.9306 35.3698 42.0485 35.2876 42.1845C35.3607 42.2298 35.4155 42.2752 35.4794 42.3114C35.1507 42.7194 35.2146 42.6378 35.452 43.0276C35.3333 43.0186 35.2328 43.0186 35.1324 43.0004C34.8675 42.946 34.621 43.0911 34.5662 43.3631C34.5296 43.5535 34.5296 43.7439 34.2648 43.7892C34.2283 43.7983 34.1917 43.898 34.1917 43.9614C34.1735 44.179 34.1643 44.3876 34.1552 44.5598C34.0091 44.6595 33.8904 44.7411 33.7625 44.8137C33.5616 44.9134 33.3698 45.0584 33.1598 45.0947C32.6118 45.1854 32.0456 45.276 31.5159 45.0494C31.1233 44.8862 30.8127 44.6323 30.6849 44.1881C30.5844 43.8527 30.3927 43.5353 30.2374 43.209C30.3013 43.2271 30.3744 43.2362 30.4383 43.2543C30.4475 43.1364 30.484 43.0095 30.4475 42.9098C30.347 42.6559 30.2191 42.4111 30.0913 42.1664C29.6621 41.3867 29.1415 40.6795 28.5388 40.0358C28.4201 39.9089 28.2374 39.8364 28.073 39.7638C27.4612 39.4919 26.8675 39.1927 26.4018 38.694C26.3653 38.6578 26.3196 38.6215 26.3013 38.5762C26.21 38.2317 25.8995 38.1863 25.6347 38.0413C25.0319 37.7058 24.3835 37.7784 23.7534 37.7784C23.6347 37.7784 23.5159 37.9053 23.3881 37.9869C23.3698 37.9144 23.3424 37.8418 23.2968 37.6786C23.2328 37.9506 23.105 38.0232 22.8949 38.005C22.8401 37.996 22.7123 38.1773 22.7123 38.2679C22.7214 38.5581 22.7488 38.8572 22.8036 39.1474C22.8949 39.6279 23.379 39.9361 23.8538 39.8182C24.4018 39.6913 24.9223 39.7638 25.4338 39.9814C25.6164 40.063 25.8082 40.1537 26 40.1628C26.347 40.1809 26.5936 40.3441 26.8401 40.5707C27.0776 40.7883 27.379 40.9424 27.6347 41.151C27.8173 41.296 27.9634 41.4683 28.1278 41.6315C28.137 41.6405 28.1461 41.6405 28.1461 41.6496C28.137 42.1029 28.6118 42.3567 28.6118 42.801C28.6118 42.8373 28.6118 42.8916 28.6392 42.9007C28.9954 43.0639 28.7214 43.2634 28.6849 43.4537C28.6666 43.5716 28.6484 43.7076 28.6758 43.8255C28.8036 44.2969 28.9589 44.7593 29.0867 45.2307C29.105 45.3123 29.0319 45.412 29.0045 45.5027C28.9315 45.4483 28.8401 45.403 28.7945 45.3395C28.7032 45.2035 28.621 45.0675 28.5479 44.9134C28.4201 44.6323 27.9634 44.315 27.6803 44.3422C27.6073 44.3513 27.5251 44.4148 27.4612 44.4692C27.2694 44.6233 27.0685 44.7502 26.7945 44.6777C26.7397 44.6595 26.6666 44.7049 26.6027 44.723C26.4749 44.7683 26.347 44.8227 26.21 44.8681C25.8265 44.9859 25.452 45.131 25.0685 45.2035C24.557 45.3032 24.0365 45.3486 23.5251 45.4302C22.3105 45.6115 21.105 45.4302 19.9178 45.2126C19.3607 45.1128 18.8401 44.8046 18.2831 44.723C17.8995 44.6686 17.589 44.5689 17.2694 44.3513C17.0867 44.2334 16.5022 44.6233 16.3653 44.8953C16.2831 45.0675 16.1735 45.2216 16.0639 45.3758C16.0274 45.4211 15.9634 45.4574 15.9178 45.4936C15.8904 45.4302 15.8173 45.3576 15.8265 45.3032C15.9086 44.9043 15.9634 44.4963 16.1096 44.1246C16.2374 43.7983 16.347 43.5081 16.1096 43.1908C16.0822 43.1455 16.0822 43.0186 16.1004 43.0095C16.3013 42.9098 16.2831 42.7013 16.347 42.529C16.3653 42.4837 16.3835 42.4293 16.4109 42.3839C16.5296 42.1573 16.7032 41.985 16.7488 41.6949C16.8128 41.3323 17.2146 41.1872 17.4977 40.9787C17.7808 40.7792 18.0456 40.5526 18.3196 40.3441C18.4109 40.2806 18.5022 40.2081 18.6118 40.1809C19.0045 40.063 19.4064 39.9905 19.7808 39.8545C20.2009 39.7004 20.621 39.6913 21.0411 39.782C21.6255 39.8998 22.1004 39.6007 22.1917 39.0204C22.2283 38.7938 22.2557 38.5581 22.2831 38.3223C22.3105 38.0957 22.1917 37.9869 21.9634 37.9597C21.8538 37.9416 21.7625 37.8328 21.6438 37.7512C21.6347 37.8056 21.6164 37.8872 21.5981 37.9688C21.5799 37.9688 21.5616 37.9778 21.5616 37.9778C21.3516 37.6605 21.0228 37.7874 20.7306 37.7421C20.0548 37.6424 19.4977 37.9688 18.9041 38.1682C18.8584 38.1863 18.8128 38.2226 18.7854 38.2589C18.4657 38.9298 17.8447 39.2471 17.2146 39.5553C16.8493 39.7366 16.4383 39.8364 16.1552 40.19C15.5159 41.0059 14.8675 41.8218 14.4566 42.7829C14.347 43.0367 14.3653 43.1546 14.5205 43.3178C14.3561 43.7076 14.2191 44.0974 14.0274 44.4601C13.8173 44.8499 13.4338 45.0766 13.0045 45.1038C12.5114 45.14 12 45.0766 11.4977 45.0131C11.3242 44.995 11.1598 44.8409 11.0045 44.7502C10.8949 44.6867 10.7945 44.6233 10.6575 44.5326C10.6484 44.3785 10.6484 44.1609 10.621 43.9524C10.6118 43.8799 10.557 43.762 10.5114 43.7529C10.3105 43.7167 10.2831 43.5625 10.2465 43.4084C10.2191 43.3178 10.2009 43.218 10.1461 43.1455C10.0274 42.9823 9.88124 42.8463 9.6438 42.9642C9.57074 43.0004 9.47942 42.9823 9.31503 42.9914C9.58901 42.7285 9.60727 42.5018 9.3059 42.2933C9.6164 42.112 9.41549 41.9578 9.29677 41.7584C9.22371 41.8581 9.16892 41.9488 9.10499 42.0122C9.03193 42.0757 8.93147 42.112 8.84928 42.1573C8.81275 42.0757 8.75796 41.9941 8.75796 41.9034C8.75796 41.7856 8.78535 41.6677 8.81275 41.5227C8.6849 41.5771 8.56618 41.6315 8.42006 41.704C8.3196 41.4501 8.10042 41.16 8.16435 40.9878C8.30134 40.6614 7.96344 40.5254 7.99083 40.3894C8.0365 40.0993 7.85385 39.8636 7.90864 39.6007C7.92691 39.5191 7.96344 39.4375 7.97257 39.3468C7.9817 39.3015 7.97257 39.2199 7.94517 39.2017C7.71686 39.093 7.6986 38.9207 7.77165 38.7031C7.78992 38.6668 7.6986 38.5671 7.6438 38.5309C7.57987 38.4946 7.49768 38.4946 7.39723 38.4765C7.57074 38.1682 7.49768 37.8872 7.39723 37.597C7.31503 37.3795 7.31503 37.1437 7.26937 36.908C7.22371 36.6904 7.16892 36.4638 7.10499 36.219C7.06846 36.2281 6.97713 36.2643 6.84928 36.3187C6.74882 35.7476 6.64837 35.1855 6.54791 34.6234C6.45659 34.6234 6.38353 34.6234 6.31047 34.6234C6.30134 34.5871 6.2922 34.5508 6.2922 34.5236C6.35613 34.2154 6.2922 33.9253 6.15522 33.6442C6.09129 33.5082 6.06389 33.345 6.05476 33.1909C6.01823 32.3478 5.96344 31.4956 5.97257 30.6524C5.9817 29.9906 6.07302 29.3288 6.11869 28.6669C6.15522 28.2136 6.21001 27.7513 6.21914 27.298C6.24654 26.5183 6.23741 25.7477 6.27394 24.968C6.28307 24.7504 6.38353 24.5328 6.42006 24.3152C6.51138 23.8438 6.60271 23.3814 6.66663 22.91C6.73056 22.4657 6.93147 22.1031 7.23284 21.7767C7.87211 21.0967 8.70316 20.725 9.55248 20.3805C10.557 19.9635 11.589 19.6462 12.6666 19.4467C14 19.2019 15.3333 18.939 16.6758 18.7758C20.0913 18.3497 23.5159 18.3497 26.9315 18.6308C28.4475 18.7486 29.9634 18.9662 31.4612 19.2291C32.5753 19.4286 33.6803 19.7459 34.758 20.0904C35.7351 20.3987 36.6849 20.7885 37.4977 21.4413C38.0913 21.9127 38.5296 22.4657 38.4201 23.2907C38.3653 23.7078 38.347 24.1339 38.3105 24.56C38.3105 24.5963 38.3013 24.6325 38.3105 24.6597C38.5844 25.9199 38.5479 27.1982 38.6301 28.4675C38.6849 29.2472 38.7762 30.0359 38.7854 30.8156C38.8036 31.6316 38.758 32.4384 38.7214 33.2544C38.7123 33.3904 38.6575 33.5173 38.621 33.6533C38.557 34.0069 38.484 34.3151 38.4018 34.6687ZM22.0456 39.7729C22.347 39.7729 22.621 39.7729 22.8949 39.7729C22.9132 39.4647 22.7488 39.4012 22.557 39.3831C22.3287 39.3649 22.1278 39.4103 22.0456 39.7729Z" fill="#F1F1F1"/>
<path d="M22.0457 39.7731C22.1187 39.4104 22.3288 39.3651 22.5571 39.3832C22.7489 39.4014 22.9132 39.4648 22.895 39.7731C22.621 39.7731 22.3562 39.7731 22.0457 39.7731Z" fill="#1A1A1E"/>
<path d="M17.2695 5.78399L17.3152 6.21009H17.3334L17.3791 5.77492L17.7992 4.43314H18.1097L18.5298 5.78399L18.5754 6.21009H18.5937L18.6485 5.77492L18.9407 4.43314H19.4248L18.7581 6.86285H18.4385L17.991 5.52107L17.9362 5.14936H17.9179L17.8631 5.52107L17.4339 6.85378H17.096L16.4293 4.42407H16.9499L17.2695 5.78399Z" fill="#F1F1F1"/>
<path d="M19.7079 4.43311H21.1508V4.85015H20.1828V5.41224H21.0595V5.82929H20.1828V6.41858H21.1691V6.83562H19.7079V4.43311Z" fill="#F1F1F1"/>
<path d="M23.6256 6.30986H22.8768L22.6941 6.84476H22.2192L23.0959 4.41504H23.443L24.3197 6.84476H23.8174L23.6256 6.30986ZM22.9955 5.92908H23.516L23.3334 5.39418L23.2603 5.0134H23.2421L23.169 5.39418L22.9955 5.92908Z" fill="#F1F1F1"/>
<path d="M24.6119 4.4604C24.6667 4.45134 24.7215 4.44227 24.7855 4.4332C24.8494 4.42414 24.9042 4.41507 24.9681 4.41507C25.032 4.40601 25.0868 4.40601 25.1508 4.40601C25.2055 4.40601 25.2603 4.40601 25.306 4.40601C25.4156 4.40601 25.5343 4.41507 25.6439 4.4332C25.7535 4.45134 25.854 4.4876 25.9361 4.542C26.0275 4.59639 26.0914 4.65986 26.1462 4.75052C26.201 4.84118 26.2284 4.94997 26.2284 5.08596C26.2284 5.28542 26.1827 5.44861 26.0914 5.56647C26.0001 5.69339 25.8722 5.77499 25.717 5.82032L25.8905 5.92911L26.4476 6.84479H25.8996L25.3517 5.90191L25.1051 5.85658V6.84479H24.6302V4.4604H24.6119ZM25.3425 4.82305C25.2969 4.82305 25.2421 4.82305 25.1964 4.82305C25.1508 4.82305 25.1142 4.83211 25.0868 4.84118V5.53927H25.2877C25.4156 5.53927 25.5252 5.51207 25.6074 5.44861C25.6896 5.38515 25.7261 5.29448 25.7261 5.14943C25.7261 5.0497 25.6896 4.9681 25.6256 4.90464C25.5617 4.85025 25.4613 4.82305 25.3425 4.82305Z" fill="#F1F1F1"/>
<path d="M26.7855 4.43311H28.2193V4.85015H27.2513V5.41224H28.128V5.82929H27.2513V6.41858H28.2376V6.83562H26.7764V4.43311H26.7855Z" fill="#F1F1F1"/>
<path d="M20.9864 10.0269H20.2375L20.0548 10.5618H19.58L20.4567 8.13208H20.8037L21.6804 10.5618H21.1781L20.9864 10.0269ZM20.3562 9.64612H20.8768L20.6941 9.11122L20.6211 8.73044H20.6028L20.5297 9.11122L20.3562 9.64612Z" fill="#F1F1F1"/>
<path d="M23.5069 10.562H21.9727V8.15039H22.4475V10.1449H23.5069V10.562Z" fill="#F1F1F1"/>
<path d="M25.3699 10.562H23.8357V8.15039H24.3106V10.1449H25.3699V10.562Z" fill="#F1F1F1"/>
<path d="M17.5891 13.2727H16.7033V14.279H16.2284V11.8674H16.7033V12.8466H17.5891V11.8674H18.064V14.279H17.5891V13.2727Z" fill="#F1F1F1"/>
<path d="M19.7717 13.7442H19.0229L18.8402 14.2791H18.3654L19.2421 11.8494H19.5891L20.4658 14.2791H19.9635L19.7717 13.7442ZM19.1416 13.3634H19.6622L19.4795 12.8285L19.4065 12.4477H19.3882L19.3151 12.8285L19.1416 13.3634Z" fill="#F1F1F1"/>
<path d="M22.2923 14.1792C22.2193 14.2336 22.1279 14.2699 22.0092 14.288C21.8905 14.3152 21.7809 14.3243 21.653 14.3243C21.5069 14.3243 21.3699 14.3062 21.2421 14.2608C21.1142 14.2155 20.9955 14.143 20.8951 14.0432C20.7946 13.9435 20.7124 13.8166 20.6576 13.6534C20.6028 13.4902 20.5663 13.2998 20.5663 13.0732C20.5663 12.8375 20.6028 12.638 20.6667 12.4748C20.7307 12.3116 20.822 12.1847 20.9224 12.085C21.0229 11.9852 21.1416 11.9218 21.2786 11.8765C21.4065 11.8311 21.5343 11.813 21.6713 11.813C21.8083 11.813 21.927 11.8221 22.0275 11.8402C22.1279 11.8583 22.201 11.8765 22.2649 11.9036L22.1736 12.3026C22.1188 12.2754 22.0549 12.2572 21.9818 12.2482C21.9087 12.2391 21.8174 12.23 21.717 12.23C21.5252 12.23 21.3699 12.2935 21.2512 12.4295C21.1325 12.5655 21.0777 12.774 21.0777 13.0641C21.0777 13.191 21.096 13.2998 21.1234 13.4086C21.1508 13.5083 21.1964 13.599 21.2512 13.6715C21.306 13.7441 21.3791 13.7985 21.4613 13.8438C21.5435 13.8801 21.6439 13.9073 21.7535 13.9073C21.854 13.9073 21.9453 13.8982 22.0183 13.8801C22.0914 13.8619 22.1553 13.8347 22.2101 13.7985L22.2923 14.1792Z" fill="#F1F1F1"/>
<path d="M23.2695 13.2455H23.1416V14.279H22.6667V11.8674H23.1416V12.9372L23.2512 12.8919L23.9179 11.8765H24.4567L23.7444 12.8919L23.5526 13.0188L23.7444 13.1548L24.5572 14.2881H23.9727L23.2695 13.2455Z" fill="#F1F1F1"/>
<path d="M24.9042 11.8674H26.3471V12.2845H25.3791V12.8466H26.2558V13.2636H25.3791V13.8529H26.3654V14.2699H24.9042V11.8674Z" fill="#F1F1F1"/>
<path d="M26.8037 11.8673C26.8494 11.8583 26.9042 11.8583 26.9681 11.8492C27.032 11.8401 27.0959 11.8401 27.1599 11.8401C27.2238 11.8401 27.2877 11.8401 27.3517 11.8311C27.4156 11.8311 27.4704 11.8311 27.516 11.8311C27.7352 11.8311 27.9179 11.8583 28.064 11.9217C28.2192 11.9852 28.338 12.0668 28.4384 12.1756C28.5389 12.2844 28.6028 12.4113 28.6485 12.5654C28.6941 12.7105 28.7124 12.8827 28.7124 13.055C28.7124 13.2182 28.6941 13.3723 28.6485 13.5264C28.6028 13.6805 28.5389 13.8165 28.4384 13.9253C28.338 14.0432 28.2101 14.1338 28.0548 14.2064C27.8996 14.2789 27.6987 14.3152 27.4704 14.3152C27.4338 14.3152 27.3882 14.3152 27.3243 14.3152C27.2603 14.3152 27.1964 14.3061 27.1325 14.3061C27.0686 14.3061 27.0046 14.297 26.9407 14.297C26.8768 14.297 26.8311 14.288 26.8037 14.288V11.8673ZM27.5434 12.2572C27.4886 12.2572 27.443 12.2572 27.3882 12.2572C27.3334 12.2572 27.2969 12.2662 27.2695 12.2662V13.88C27.2786 13.88 27.2969 13.88 27.3151 13.8891C27.3334 13.8891 27.3608 13.8891 27.3882 13.8891C27.4156 13.8891 27.4338 13.8891 27.4612 13.8891C27.4886 13.8891 27.4978 13.8891 27.516 13.8891C27.653 13.8891 27.7626 13.8619 27.8539 13.8165C27.9453 13.7712 28.0092 13.7077 28.064 13.6261C28.1188 13.5445 28.1553 13.4539 28.1736 13.3542C28.1918 13.2544 28.201 13.1456 28.201 13.0368C28.201 12.9462 28.1918 12.8465 28.1736 12.7558C28.1553 12.6561 28.1188 12.5745 28.0731 12.5019C28.0275 12.4294 27.9544 12.366 27.8722 12.3116C27.79 12.2753 27.6804 12.2572 27.5434 12.2572Z" fill="#F1F1F1"/>
<path d="M37.9543 25.6843C37.7534 25.6027 37.5616 25.4849 37.3516 25.4396C33.9452 24.7143 30.5388 24.9047 27.1415 25.5302C26.8584 25.5302 26.5753 25.5393 26.3105 25.6662C26.2831 25.6753 26.2648 25.6843 26.2466 25.7025C25.8539 25.775 25.452 25.8113 25.0868 25.9926C24.8493 26.0379 24.6119 26.0651 24.3744 26.1195C23.2511 26.3824 22.1552 26.5275 20.9863 26.2283C19.9361 25.9563 18.8858 25.5937 17.7808 25.5483C15.3059 25.0497 12.8036 24.8956 10.2831 25.0678C9.14154 25.1404 7.99999 25.2129 6.93149 25.7025C6.35615 26.2102 6.73058 26.7813 6.82191 27.3253C6.81277 27.5792 6.81277 27.8239 7.09588 27.9509C7.14154 28.0778 7.25113 28.0778 7.35159 28.0778C7.50684 28.3226 7.67122 28.5674 7.82647 28.8121V28.8031C7.8904 29.1204 7.95433 29.4377 8.01825 29.7641C7.8356 30.3806 8.15524 30.9427 8.2283 31.532C8.2557 31.7677 8.06392 32.1394 8.24656 32.1757C9.09588 32.357 8.5114 33.3905 9.1872 33.6444C9.2146 33.6534 9.23287 33.7894 9.20547 33.8438C9.04108 34.1883 9.242 34.2427 9.5251 34.279C9.68949 34.2971 9.9178 34.3425 9.98172 34.4513C10.6027 35.4395 11.5799 35.4848 12.5845 35.5029C12.8493 35.5301 13.1141 35.5664 13.379 35.5845C15.3973 35.7568 17.242 35.3579 18.7762 33.9345C19.0502 33.8438 19.1872 33.6081 19.3699 33.4268C20.1278 32.638 20.5023 31.6498 20.9224 30.6798C21.2694 30.0451 21.7991 29.5012 21.9543 28.7668C22.4018 28.7034 22.7671 28.9481 23.1689 29.0841L23.2055 29.1295L23.1781 29.1748C23.3881 29.6462 23.3699 30.2355 23.8995 30.5438C24.0274 31.4957 24.2374 32.4114 25.0959 33.0098C25.2877 33.6806 25.7808 34.0705 26.3836 34.3515C28.1187 35.3941 29.9635 35.929 32 35.5029C32.8767 35.3216 33.7443 35.095 34.3562 34.3515C34.4018 34.3062 34.4475 34.2609 34.4931 34.2246C34.7306 34.0614 34.968 33.9073 35.0685 33.6172L35.1233 33.6444C35.452 33.8166 35.5616 33.4993 35.6895 33.3452C36.5571 32.3207 36.9041 31.1331 36.8219 29.8094C36.9315 29.0841 37.0959 28.3951 37.7717 27.969C38.0183 27.8149 38.0365 27.5973 38.0183 27.3434C38.1552 26.7632 38.6027 26.183 37.9543 25.6843ZM10.8128 34.0342C10.8036 34.0252 10.7945 34.0252 10.7945 34.0161C10.7945 34.0161 10.7945 34.0161 10.7945 34.007C10.7945 34.0252 10.8036 34.0342 10.8128 34.0342ZM15.4155 25.9654C15.7899 26.0289 16.1552 26.1014 16.5297 26.1739C16.1096 26.1286 15.2877 26.5184 15.2877 25.9654C15.3242 25.9563 15.3699 25.9563 15.4155 25.9654ZM9.50684 26.8992L9.49771 26.8901C9.50684 26.8901 9.50684 26.8901 9.51597 26.8901C9.50684 26.8901 9.50684 26.8992 9.50684 26.8992ZM17.5525 26.3371C17.6438 26.3734 17.7351 26.4006 17.8265 26.4278C18.758 26.7269 19.6256 27.1259 20.1644 27.9871C20.1461 28.0234 20.137 28.0506 20.1278 28.0959C20.1278 28.1231 20.137 28.3407 20.137 28.3679C20.073 28.2319 19.9909 28.105 19.8904 27.9781C19.2785 27.153 18.3562 26.736 17.4794 26.3824C17.3972 26.3552 17.3242 26.328 17.242 26.3008C17.3516 26.3099 17.452 26.319 17.5525 26.3371ZM11.379 34.9227C11.3699 34.9227 11.3607 34.9136 11.3607 34.9136C11.3699 34.9046 11.3699 34.8955 11.379 34.8864C11.3699 34.8955 11.379 34.9136 11.379 34.9227C11.3972 34.9136 11.4064 34.9046 11.4246 34.9046C11.4064 34.9136 11.3972 34.9227 11.379 34.9227C11.379 34.9318 11.379 34.9318 11.379 34.9227Z" fill="#1A1A1E"/>
<path d="M9.76263 56.7356C9.91788 56.7356 10.0823 56.7356 10.2375 56.7356C10.2375 56.8444 10.2375 56.9622 10.2375 57.1436C10.064 57.0257 9.89961 56.9079 9.73523 56.7991C9.74436 56.7809 9.75349 56.7628 9.76263 56.7356Z" fill="white"/>
</g>
<defs>
<clipPath id="clip0">
<rect width="44" height="64.9767" fill="white"/>
</clipPath>
</defs>
</svg>
