<svg width="615" height="103" viewBox="0 0 615 103" fill="none" xmlns="http://www.w3.org/2000/svg">
<path d="M200.877 5.83877V101.491H196.641V5.83877H177.55V1.90246H219.968V5.83877H200.877Z" fill="#1A1A1E"/>
<path d="M226.977 101.491V1.77125H231.278V49.3349H262.294V1.77125H266.594V101.491H262.294V53.2713H231.278V101.491H226.977Z" fill="#1A1A1E"/>
<path d="M280.348 101.491V1.90246L314.883 1.77125V5.70756L284.583 5.83877V48.0228H310.387V51.8935H284.583V97.6203H314.883V101.491H280.348Z" fill="#1A1A1E"/>
<path d="M354.427 1.90246C357.598 1.90246 360.313 2.31796 362.572 3.14896C364.83 3.93622 366.72 5.05151 368.241 6.49482C369.761 7.8944 370.955 9.55639 371.824 11.4808C372.737 13.4052 373.41 15.4827 373.844 17.7133C374.322 19.9001 374.626 22.2182 374.756 24.6674C374.887 27.073 374.952 29.4785 374.952 31.884V71.5095C374.952 73.915 374.887 76.3424 374.756 78.7916C374.626 81.1972 374.322 83.5152 373.844 85.7458C373.41 87.9326 372.737 89.9882 371.824 91.9127C370.955 93.8371 369.761 95.5209 368.241 96.9642C366.72 98.3638 364.83 99.4791 362.572 100.31C360.313 101.097 357.598 101.491 354.427 101.491H335.074V1.90246H354.427ZM339.31 97.6203H354.427C357.337 97.6203 359.835 97.1611 361.92 96.2426C364.005 95.3241 365.699 93.8371 367.002 91.7814C368.349 89.6821 369.327 86.9704 369.935 83.6464C370.543 80.3224 370.847 76.233 370.847 71.3783V32.0152C370.847 27.3354 370.565 23.3553 370 20.0751C369.435 16.7948 368.523 14.1269 367.263 12.0713C366.047 9.97189 364.44 8.44111 362.441 7.4789C360.486 6.47295 358.097 5.92624 355.274 5.83877H339.31V97.6203Z" fill="#1A1A1E"/>
<path d="M391.372 101.491V1.77125H395.673V101.491H391.372Z" fill="#1A1A1E"/>
<path d="M431.901 53.2713H453.274V74.0025C453.274 75.9269 453.209 77.9606 453.078 80.1037C452.991 82.2468 452.731 84.3681 452.296 86.4674C451.862 88.5668 451.189 90.5787 450.276 92.5031C449.408 94.4275 448.213 96.1333 446.693 97.6203C445.172 99.0636 443.261 100.223 440.959 101.097C438.7 101.972 435.941 102.409 432.683 102.409H432.618C429.273 102.409 426.428 101.972 424.082 101.097C421.78 100.179 419.869 98.9543 418.348 97.4235C416.828 95.8927 415.655 94.1214 414.83 92.1095C414.004 90.0976 413.374 87.9545 412.94 85.6802C412.549 83.4059 412.31 81.0878 412.223 78.726C412.136 76.3205 412.093 74.0025 412.093 71.7719V31.6216C412.093 29.2598 412.136 26.8761 412.223 24.4706C412.354 22.0214 412.614 19.6596 413.005 17.3853C413.44 15.111 414.091 12.9679 414.96 10.956C415.829 8.94408 417.023 7.19461 418.544 5.70756C420.064 4.22051 421.954 3.03962 424.213 2.16489C426.515 1.29015 429.317 0.852783 432.618 0.852783H432.683C436.028 0.852783 438.852 1.31202 441.154 2.23049C443.5 3.10522 445.433 4.30798 446.953 5.83877C448.474 7.32582 449.647 9.05342 450.472 11.0216C451.341 12.946 451.971 14.9579 452.362 17.0572C452.796 19.1129 453.057 21.2122 453.143 23.3553C453.23 25.4547 453.274 27.401 453.274 29.1942V29.5878H448.973V29.1942C448.973 25.8702 448.799 22.7211 448.452 19.747C448.148 16.773 447.431 14.1706 446.302 11.94C445.172 9.70947 443.522 7.96 441.35 6.69164C439.221 5.37954 436.332 4.72348 432.683 4.72348C429.034 4.72348 426.124 5.4014 423.952 6.75724C421.78 8.11308 420.129 9.99376 419 12.3993C417.914 14.8048 417.197 17.6696 416.85 20.9935C416.546 24.2738 416.393 27.8602 416.393 31.7528V71.6407C416.393 74.0899 416.437 76.4517 416.524 78.726C416.611 81.0003 416.828 83.1434 417.175 85.1553C417.523 87.1235 418.044 88.9386 418.739 90.6006C419.478 92.2188 420.433 93.6184 421.606 94.7993C422.823 95.9802 424.321 96.8986 426.102 97.5547C427.927 98.2107 430.12 98.5388 432.683 98.5388C436.159 98.5388 438.96 97.9265 441.089 96.7018C443.217 95.4772 444.868 93.7715 446.041 91.5846C447.214 89.3541 447.996 86.7517 448.387 83.7776C448.778 80.7598 448.973 77.4795 448.973 73.9369V57.142H431.901V53.2713Z" fill="#1A1A1E"/>
<path d="M469.303 101.491V1.77125H473.604V101.491H469.303Z" fill="#1A1A1E"/>
<path d="M507.617 5.83877V101.491H503.382V5.83877H484.29V1.90246H526.709V5.83877H507.617Z" fill="#1A1A1E"/>
<path d="M566.13 101.491L560.657 74.7241H531.596L526.122 101.491H521.691L542.217 1.77125H550.036L570.561 101.491H566.13ZM532.378 70.8534H559.875L546.582 5.64196H545.735L532.378 70.8534Z" fill="#1A1A1E"/>
<path d="M580.987 101.491V1.77125H585.222V97.4891H615V101.491H580.987Z" fill="#1A1A1E"/>
<path d="M25.2819 45.2019H51.2806V76.6268C51.2806 80.5193 50.8245 84.0839 49.9123 87.3204C49.0435 90.5569 47.61 93.3342 45.6117 95.6522C43.6135 97.9265 40.9637 99.7197 37.6623 101.032C34.4043 102.3 30.4078 102.934 25.6729 102.934V103C20.8511 103 16.8112 102.366 13.5532 101.097C10.2952 99.7853 7.6454 97.9484 5.60373 95.5866C3.6055 93.2248 2.17199 90.4038 1.30319 87.1236C0.434398 83.8433 0 80.2132 0 76.2331V26.7669C0 22.8306 0.434398 19.2442 1.30319 16.0076C2.17199 12.7274 3.6055 9.90637 5.60373 7.54459C7.60196 5.1828 10.2301 3.34586 13.488 2.03376C16.746 0.721656 20.7642 0.0656051 25.5426 0.0656051L25.6077 0C30.3861 0 34.4043 0.656051 37.6623 1.96815C40.9637 3.23652 43.6135 5.05159 45.6117 7.41338C47.6534 9.73142 49.1086 12.5306 49.9774 15.8108C50.8462 19.0911 51.2806 22.6994 51.2806 26.6357V35.0331H30.1689V26.7013C30.1689 26.1327 30.1037 25.4985 29.9734 24.7987C29.8865 24.0989 29.6694 23.4648 29.3218 22.8962C29.0178 22.2839 28.5616 21.7809 27.9535 21.3873C27.3453 20.9499 26.5634 20.7312 25.6077 20.7312C24.6521 20.7312 23.8701 20.9499 23.262 21.3873C22.6973 21.7809 22.2412 22.2839 21.8936 22.8962C21.5896 23.5085 21.3724 24.1645 21.242 24.8643C21.1552 25.5641 21.1117 26.1983 21.1117 26.7669V76.2331C21.1117 76.8017 21.1552 77.4359 21.242 78.1357C21.3724 78.8355 21.5896 79.4915 21.8936 80.1038C22.2412 80.7161 22.6973 81.241 23.262 81.6783C23.8701 82.072 24.6738 82.2688 25.6729 82.2688C26.5851 82.2688 27.3236 82.0938 27.8883 81.7439C28.4965 81.3503 28.9526 80.8692 29.2567 80.3006C29.6042 79.7321 29.8431 79.1197 29.9734 78.4637C30.1037 77.7639 30.1689 77.1297 30.1689 76.5611V65.6051H25.2819V45.2019Z" fill="#C0923D"/>
<path d="M62.7487 101.491V1.64013H108.36V22.3713H83.8604V40.7408H103.864V61.472H83.8604V80.8255H108.36V101.491H62.7487Z" fill="#C0923D"/>
<path d="M150.649 22.3713V101.491H129.407V22.3713H114.616V1.64013H165.44V22.3713H150.649Z" fill="#C0923D"/>
</svg>
