<svg width="20" height="17" viewBox="0 0 20 17" fill="none" xmlns="http://www.w3.org/2000/svg">
<path d="M1.22726 7.07705L13.1398 2.25362C14.3157 1.75121 18.3038 0.143445 18.3038 0.143445C18.3038 0.143445 20.1444 -0.559896 19.9909 1.14826C19.9398 1.8516 19.531 4.31366 19.1218 6.97636L17.8437 14.8645C17.8437 14.8645 17.7414 16.0201 16.8707 16.2211C16.0001 16.422 14.57 15.5177 14.3146 15.3166C14.1101 15.166 10.48 12.905 9.15064 11.7996C8.79272 11.4983 8.38379 10.8952 9.2018 10.1919C11.0424 8.53385 13.2409 6.47381 14.57 5.16752C15.1836 4.56457 15.7971 3.15775 13.2408 4.86619L6.03194 9.63935C6.03194 9.63935 5.21379 10.1418 3.68009 9.68962C2.14639 9.23749 0.356927 8.63454 0.356927 8.63454C0.356927 8.63454 -0.870151 7.88093 1.22608 7.07719L1.22726 7.07705Z" fill="white"/>
</svg>
