<svg width="31" height="31" viewBox="0 0 31 31" fill="none" xmlns="http://www.w3.org/2000/svg">
<path d="M15.065 30.13C23.3852 30.13 30.13 23.3852 30.13 15.065C30.13 6.74483 23.3852 0 15.065 0C6.74483 0 0 6.74483 0 15.065C0 23.3852 6.74483 30.13 15.065 30.13Z" fill="#C0923D"/>
<path d="M6.98181 14.6616L16.5119 10.8029C17.4526 10.401 20.643 9.11476 20.643 9.11476C20.643 9.11476 22.1155 8.55208 21.9927 9.91861C21.9518 10.4813 21.6248 12.4509 21.2974 14.5811L20.2749 20.8916C20.2749 20.8916 20.1931 21.8161 19.4966 21.9769C18.8001 22.1376 17.656 21.4142 17.4517 21.2533C17.2881 21.1328 14.384 19.324 13.3205 18.4397C13.0342 18.1987 12.707 17.7162 13.3614 17.1535C14.8339 15.8271 16.5928 14.179 17.656 13.134C18.1469 12.6517 18.6377 11.5262 16.5926 12.893L10.8256 16.7115C10.8256 16.7115 10.171 17.1134 8.94407 16.7517C7.71711 16.39 6.28554 15.9076 6.28554 15.9076C6.28554 15.9076 5.30388 15.3047 6.98087 14.6618L6.98181 14.6616Z" fill="#F8F8F8"/>
</svg>
