<svg width="32" height="32" viewBox="0 0 32 32" fill="none" xmlns="http://www.w3.org/2000/svg">
<path d="M20.0647 17.4305C20.0727 17.5032 20.0808 17.5679 20.0808 17.6285C20.0808 18.2467 19.798 18.7032 19.2283 18.9982C18.8647 19.18 18.5212 19.2729 18.2061 19.2729H18.0243C17.4546 19.18 16.7919 18.9537 16.0283 18.5861C15.0344 18.1214 14.1091 17.2931 13.2566 16.1052C12.6465 15.2325 12.3435 14.5052 12.3435 13.9275C12.3435 12.9133 12.6748 12.3113 13.3334 12.1295C13.4748 12.1093 13.6121 12.0972 13.7455 12.0972C13.8788 12.0972 13.996 12.1174 14.097 12.1578C14.1778 12.1982 14.3394 12.4891 14.5859 13.0265C14.8404 13.6446 14.9657 13.976 14.9657 14.0164C14.9657 14.1699 14.8687 14.3477 14.6748 14.5497L14.3233 15.0063C14.3233 15.1275 14.497 15.4184 14.8404 15.8749C15.2768 16.4325 15.7495 16.8487 16.2586 17.1234C16.7152 17.378 17.0222 17.5032 17.1717 17.5032H17.2041C17.2849 17.4911 17.4505 17.3254 17.7051 17.0022C17.9596 16.6871 18.1253 16.5295 18.2061 16.5295C18.3192 16.5295 18.6505 16.6669 19.2121 16.9416C19.6687 17.1638 19.899 17.277 19.899 17.277C19.899 17.277 19.9556 17.3295 20.0647 17.4305Z" fill="#C0923D"/>
<path d="M29.9271 10.2426C30.6827 12.0688 31.0625 13.988 31.0625 16.0001C31.0625 18.0122 30.6827 19.9314 29.9271 21.7577C29.1716 23.584 28.0766 25.2163 26.6463 26.6466C25.216 28.0769 23.5837 29.1718 21.7574 29.9274C19.9312 30.683 18.012 31.0628 15.9999 31.0628C13.9877 31.0628 12.0685 30.683 10.2423 29.9274C8.41602 29.1718 6.78369 28.0769 5.35339 26.6466C3.92309 25.2163 2.82814 23.584 2.07258 21.7577C1.31299 19.9314 0.937229 18.0122 0.937229 16.0001C0.937229 13.988 1.31703 12.0688 2.07258 10.2426C2.82814 8.41629 3.92309 6.78397 5.35339 5.35366C6.78369 3.92336 8.41602 2.82841 10.2423 2.07285C12.0685 1.3173 13.9877 0.9375 15.9999 0.9375C18.012 0.9375 19.9312 1.3173 21.7574 2.07285C23.5837 2.82841 25.216 3.92336 26.6463 5.35366C28.0766 6.78397 29.1716 8.41629 29.9271 10.2426ZM23.9514 16.1213V15.1597C23.7574 13.1597 22.9898 11.491 21.6524 10.1496C20.3514 8.84053 18.6786 8.09306 16.6261 7.91124H15.6807C13.5271 8.12538 11.8221 8.90518 10.5655 10.2587C9.11501 11.8223 8.37157 13.5961 8.34329 15.5759C8.34329 16.784 8.64632 17.992 9.25642 19.2001C9.31703 19.3617 9.34935 19.5153 9.34935 19.6567C9.34935 19.8304 9.32511 19.992 9.27258 20.1456C8.42814 22.5739 8.00794 23.7981 8.00794 23.8183L8.06854 23.7254C8.07662 23.7658 8.09278 23.786 8.11299 23.786C8.65036 23.592 9.36147 23.3617 10.2463 23.087C11.3938 22.7234 12.1049 22.4931 12.3797 22.4001C13.6685 23.0587 14.917 23.39 16.1251 23.39H16.3675C17.7978 23.3294 19.0786 22.9537 20.2059 22.2628C22.4362 20.8809 23.6847 18.8325 23.9514 16.1213Z" fill="#C0923D"/>
</svg>
