<svg width="20" height="20" viewBox="0 0 20 20" fill="none" xmlns="http://www.w3.org/2000/svg">
<path fill-rule="evenodd" clip-rule="evenodd" d="M19.9392 9.06061V10.2626C19.6059 13.6515 18.0453 16.2121 15.2574 17.9394C13.8483 18.803 12.2473 19.2727 10.4594 19.3485H10.1564C8.64631 19.3485 7.08571 18.9343 5.47459 18.1111C5.13116 18.2273 4.24227 18.5152 2.80793 18.9697C1.70187 19.3131 0.812979 19.601 0.141262 19.8434C0.11601 19.8434 0.0958077 19.8182 0.0857067 19.7677L0.00994873 19.8838C0.00994873 19.8586 0.535202 18.3283 1.59076 15.2929C1.65641 15.101 1.68672 14.899 1.68672 14.6818C1.68672 14.5051 1.64631 14.3131 1.57056 14.1111C0.807929 12.601 0.429141 11.0909 0.429141 9.58081C0.464495 7.10606 1.39379 4.88889 3.20692 2.93434C4.77763 1.24242 6.90894 0.267677 9.60086 0H10.7827C13.3483 0.227273 15.4392 1.16162 17.0655 2.79798C18.7372 4.47475 19.6968 6.56061 19.9392 9.06061ZM15.084 11.9277C15.083 11.9182 15.0819 11.9086 15.0808 11.899L14.8738 11.7071C14.8738 11.7071 14.5859 11.5656 14.0152 11.2879C13.3132 10.9444 12.899 10.7727 12.7576 10.7727C12.6566 10.7727 12.4495 10.9697 12.1313 11.3636C11.8132 11.7677 11.6061 11.9747 11.5051 11.9899H11.4647C11.2778 11.9899 10.894 11.8333 10.3233 11.5151C9.6869 11.1717 9.09599 10.6515 8.55053 9.95453C8.12124 9.38382 7.90407 9.02019 7.90407 8.86867L8.34346 8.29796C8.58589 8.04544 8.7071 7.82322 8.7071 7.6313C8.7071 7.58079 8.55053 7.16665 8.23235 6.39392C7.92427 5.72221 7.72225 5.35857 7.62124 5.30806C7.49498 5.25756 7.34851 5.23231 7.18185 5.23231C7.01518 5.23231 6.84346 5.24746 6.66669 5.27271C5.84346 5.49999 5.42932 6.25251 5.42932 7.52019C5.42932 8.24241 5.80811 9.1515 6.57074 10.2424C7.63639 11.7273 8.79296 12.7626 10.0354 13.3434C10.9899 13.803 11.8182 14.0858 12.5303 14.202H12.7576C13.1515 14.202 13.5808 14.0858 14.0354 13.8586C14.7475 13.4899 15.101 12.9192 15.101 12.1464C15.101 12.0787 15.093 12.007 15.084 11.9277Z" fill="white"/>
</svg>
